<?xml version="1.0" encoding="UTF-8" standalone="no"?>
<svg
   version="1.0"
   width="700.000000pt"
   height="700.000000pt"
   viewBox="0 0 700.000000 700.000000"
   preserveAspectRatio="xMidYMid meet"
   id="svg73"
   sodipodi:docname="safari-pinned-tab.svg"
   inkscape:version="1.2.1 (9c6d41e4, 2022-07-14)"
   xmlns:inkscape="http://www.inkscape.org/namespaces/inkscape"
   xmlns:sodipodi="http://sodipodi.sourceforge.net/DTD/sodipodi-0.dtd"
   xmlns="http://www.w3.org/2000/svg"
   xmlns:svg="http://www.w3.org/2000/svg">
  <defs
     id="defs77">
    <clipPath
       id="id1">
      <path
         d="m 37,237.77734 h 335.80859 v 54.90625 H 37 Z m 0,0"
         clip-rule="nonzero"
         id="path643" />
    </clipPath>
    <clipPath
       id="id1-4">
      <path
         d="m 37,237.77734 h 335.80859 v 54.90625 H 37 Z m 0,0"
         clip-rule="nonzero"
         id="path643-8" />
    </clipPath>
  </defs>
  <sodipodi:namedview
     id="namedview75"
     pagecolor="#ffffff"
     bordercolor="#666666"
     borderopacity="1.0"
     inkscape:showpageshadow="2"
     inkscape:pageopacity="0.0"
     inkscape:pagecheckerboard="0"
     inkscape:deskcolor="#d1d1d1"
     inkscape:document-units="pt"
     showgrid="false"
     inkscape:zoom="0.86464286"
     inkscape:cx="427.92235"
     inkscape:cy="466.66667"
     inkscape:window-width="1920"
     inkscape:window-height="1027"
     inkscape:window-x="-1"
     inkscape:window-y="25"
     inkscape:window-maximized="0"
     inkscape:current-layer="svg73" />
  <metadata
     id="metadata67">
Created by potrace 1.11, written by Peter Selinger 2001-2013
</metadata>
  <g
     id="g773"
     transform="translate(0,-63.667668)">
    <path
       fill="#ff1616"
       d="m 550.66052,256.13551 c 27.42266,13.19345 46.77205,27.40062 46.77205,27.40062 0,0 -19.16575,4.23131 -36.08361,7.92636 -0.77134,-4.66472 -2.79148,-14.89772 -6.85383,-25.79186 -1.4986,-4.04765 -2.77679,-7.16971 -3.83461,-9.53512 z m -39.6391,177.37683 c -1.38104,0.5583 -2.8282,2.26991 -3.36447,0.89623 -0.55831,-1.38106 0.10287,-2.94576 1.47656,-3.49672 13.53868,-5.50216 58.0188,-24.05084 70.22053,-14.06761 1.66755,1.35902 2.40214,2.99717 2.37276,4.81898 -0.044,1.61613 -0.72725,3.23225 -1.95403,4.78961 -10.97495,13.93538 -42.88603,20.35581 -62.09587,43.18721 -0.58768,1.35901 -2.14502,1.99076 -3.51138,1.41778 -1.35902,-0.59503 -1.98343,-2.15238 -1.38839,-3.5114 0,-0.022 2.34337,-5.48747 9.57185,-12.62045 3.63627,-3.6069 11.51119,-8.42588 20.04727,-13.09794 5.20832,-2.85026 35.76039,-15.73516 34.74664,-22.18497 -1.45451,-9.34412 -56.82142,7.19911 -66.12147,13.86928 z M 655.37057,390.3839 c 5.81805,11.10717 9.04296,31.81559 7.78679,55.52851 -1.85854,35.49593 -13.02448,64.29966 -24.93237,64.32903 -5.73723,0.022 -10.62969,-6.67752 -13.906,-17.63043 2.88697,5.50218 6.42775,8.65362 10.36521,8.63891 6.90526,-0.015 13.5681,-9.72611 18.30627,-24.8442 -0.41137,-2.98249 -1.41043,-9.2413 -3.50404,-15.79393 -2.0422,-6.40573 -5.25976,-10.86475 -7.00076,-12.95838 -0.21303,2.09363 -0.7493,5.28913 -2.05688,9.9612 -2.84291,10.19626 -8.69768,18.40177 -10.90148,18.93802 -2.18177,0.53627 -2.64456,-0.82275 -2.59315,-1.70427 0.0513,-0.88886 4.79695,-5.7152 8.51403,-14.85365 3.73178,-9.13843 3.6216,-13.93537 3.6216,-13.93537 l 0.27913,-0.14688 c -0.58768,-0.55828 -1.359,-1.20473 -2.35806,-1.97607 -4.25334,-3.31306 -13.08324,-8.97683 -13.08324,-8.97683 0,0 -0.82276,-3.36447 0,-3.78318 1.71896,-0.85215 11.93726,7.10358 16.5726,11.20266 1.21209,-4.51045 3.45261,-14.86833 2.85024,-27.67977 -0.82275,-17.31455 -3.20285,-22.75061 -3.20285,-22.75061 0,0 4.38557,-0.008 6.6408,7.56639 2.23319,7.58109 1.64551,24.8736 0.35261,34.60707 -0.44813,3.26163 -1.03581,5.67846 -1.64551,7.4709 1.66753,-1.21945 3.98888,-3.16615 6.50122,-6.06047 4.84836,-5.5903 5.20097,-7.66923 5.84742,-7.43416 0.66113,0.23508 0.90356,3.13675 -3.77585,9.37351 -3.26164,4.35619 -6.26615,6.49388 -8.14673,7.48559 1.21945,0.85214 2.62988,2.13769 4.29741,4.09172 3.47467,4.09908 5.31852,9.54983 6.26617,13.56075 1.57938,-7.86024 2.66658,-16.55057 3.15143,-25.68902 0.96967,-18.32094 -0.73461,-34.84213 -4.24601,-46.53698 z m -52.7664,61.31718 c 11.53323,-29.78075 0.4481,-62.61743 15.27235,-93.81594 7.5003,-15.78658 29.17102,-17.70389 38.81635,-3.22489 0,0 -10.8721,-4.69412 -19.65059,0.55828 -28.39968,17.00603 -13.31097,78.13221 -34.43811,96.48255 z M 428.35673,386.82842 c 0,0 18.17404,-8.11733 35.83386,-0.59501 17.68185,7.52965 21.15652,23.47784 21.15652,23.47784 0,0 -8.83726,-17.50554 -25.71839,-20.76718 -16.89584,-3.26162 -31.27199,-2.11565 -31.27199,-2.11565 z m 3.12207,66.75324 c -3.40122,-8.53607 -12.29724,-27.52552 -13.53137,-28.85514 -1.57939,-1.73367 -3.78318,3.18081 -2.36541,6.17065 1.41043,2.98982 13.33302,24.8589 14.28064,27.45204 0.94765,2.6005 2.13034,6.30289 2.13034,6.30289 0.38936,-2.93107 0.573,-8.30834 -0.5142,-11.07044 z m 8.47729,-55.8591 c 5.12018,0.88152 10.02731,2.52703 14.60387,4.84103 0.96968,0.1102 2.38747,0.96968 3.53344,1.95403 18.57807,11.20269 31.28667,33.8137 31.28667,59.95817 0,37.34713 -25.95346,67.7229 -57.99677,67.83309 -19.8416,0.0662 -37.35449,-11.50387 -47.82255,-29.21511 1.25617,-1.41043 3.1294,-3.56281 4.8704,-5.5903 0.7493,1.12393 1.52064,2.22584 2.30664,3.28366 2.4095,-1.741 24.19778,-17.60104 29.69994,-23.5807 5.82539,-6.33226 6.64079,-11.67281 7.919,-10.70314 1.28555,0.96233 -1.76304,10.03465 -5.81068,15.3899 -3.74648,4.95121 -21.25937,23.76434 -25.20419,26.21791 8.89603,8.26427 20.15746,13.17141 32.41796,13.13469 7.71332,-0.0151 15.02994,-1.99812 21.61932,-5.54625 -2.04219,-9.79223 -6.83914,-31.67601 -9.7555,-36.76679 -3.77585,-6.62611 -6.94932,-10.07874 -5.20832,-10.26238 1.73365,-0.16154 9.63061,7.24317 10.90147,9.60858 0.94764,1.79243 8.64627,21.75155 11.76098,32.30777 13.65624,-10.9676 22.62572,-29.31795 22.62572,-50.10716 0,-0.91825 -0.022,-1.84385 -0.0587,-2.7621 -4.72349,1.40308 -28.44376,6.9787 -32.43266,6.2588 -4.34148,-0.78603 -6.47918,-1.5647 -6.71425,-2.18911 -0.22772,-0.6391 2.45357,-0.57299 2.45357,-0.57299 0,0 8.98417,-0.573 16.80768,-2.97514 5.83273,-1.79242 14.86098,-5.59032 19.29798,-7.30928 -2.27727,-16.71952 -10.41664,-31.13975 -21.89113,-40.32226 -2.29195,8.97682 -9.16782,31.50704 -12.63514,37.33244 -4.26068,7.13298 -7.2652,6.17798 -7.2652,6.17798 0,0 3.71707,-6.66282 5.61236,-12.82613 1.61611,-5.2524 6.58936,-26.77622 8.12469,-34.89357 -1.05048,-0.62441 -2.14505,-1.19738 -3.25429,-1.741 l -0.022,-0.015 c -0.94029,-0.4481 -1.88792,-0.88152 -2.87964,-1.27821 -2.34337,-1.17536 -5.49481,-3.12939 -6.89056,-5.64174 z m -136.29792,31.11037 c 0,0 53.84627,-5.87681 56.04273,-5.57562 2.2185,0.30853 17.36597,35.98812 17.99037,42.9448 0.63912,6.94932 -8.19814,13.29628 -10.72517,13.14935 -2.51967,-0.16154 -54.30173,-0.28649 -61.08945,-2.16707 -6.80239,-1.88793 -8.53606,-2.35072 -7.88961,-3.76116 0.6244,-1.43247 37.24429,-2.0275 48.44696,-2.85026 11.21002,-0.84477 14.37614,-2.57844 14.21452,-3.69504 -0.16154,-1.10924 -9.63061,-29.05348 -15.00055,-30.28761 -5.36994,-1.24882 -36.78148,-3.34978 -41.35806,-4.44434 -4.56921,-1.0872 -0.63174,-3.31305 -0.63174,-3.31305 z m -16.41101,-46.41212 c 0,0 66.78261,-0.23507 68.35466,-0.55828 1.57205,-0.31589 8.19816,-12.97307 20.9949,-26.6146 12.78207,-13.6342 16.24939,-15.38991 16.24939,-15.38991 0,0 -2.98984,-2.66661 -8.51404,-2.34337 -9.09435,0.55095 -29.17835,2.41682 -50.94459,9.20455 -22.96365,7.17706 -47.43322,19.55509 -48.66735,30.33903 -0.48483,4.10643 2.52703,5.36258 2.52703,5.36258 z M 78.862807,429.90544 c 0,0 -1.572051,9.96856 3.636288,23.85985 5.208321,13.88398 11.525883,19.40083 13.582767,20.01055 2.042196,0.63176 177.112388,5.34055 175.209768,-0.0367 -1.88793,-5.35525 -160.37081,-10.68111 -161.79595,-17.07948 -1.41777,-6.39103 166.71043,3.7832 165.27062,-1.82181 -1.41043,-5.59032 -159.74642,-11.46713 -158.32863,-15.25033 1.42512,-3.80524 161.80328,0 156.75658,-2.2038 -5.04672,-2.18909 -194.331443,-7.47822 -194.331443,-7.47822 z m 319.198983,22.9416 c 0,0 7.4268,-39.38931 9.46899,-48.54245 2.05689,-9.17516 5.36259,-29.42812 13.41382,-38.13315 8.05858,-8.72707 28.57601,-17.81409 44.20097,-13.59012 4.83367,1.2929 8.57279,4.2166 11.43774,7.65454 v -0.022 c 0,0 132.88204,-30.28026 136.18774,-29.5824 3.32774,0.71257 -129.19434,37.23694 -129.79671,40.77038 1.49858,3.83461 2.07158,6.69956 2.07158,6.69956 0,0 -11.36429,-16.07308 -27.15087,-13.333 -15.78658,2.74739 -29.20775,6.73629 -33.93124,18.60009 -4.74551,11.88585 -12.48087,42.72442 -16.57994,53.33207 -4.12112,10.58559 -9.32208,16.14652 -9.32208,16.14652 z m 76.81724,-146.03139 c 2.55643,-6.23677 8.18346,-19.13636 11.73894,-21.6487 4.74553,-3.33509 37.73647,-3.76849 39.94027,-2.81351 1.63815,0.69786 0.7493,10.32849 -3.64362,16.74155 7.34601,-1.20473 13.05387,-2.17442 15.647,-2.71066 2.4903,-0.52158 6.67752,-1.43248 11.69485,-2.51235 -0.58768,-4.04031 -1.82914,-11.28347 -4.28272,-21.22997 -2.30664,-9.35883 -5.49482,-17.18233 -7.72801,-22.06743 -9.38086,-3.61423 -20.28233,-6.14126 -31.02221,-7.89697 -7.87492,0.8448 -14.50103,3.7832 -19.18777,11.04107 -4.74553,7.36804 -17.30722,44.17158 -20.73781,54.35315 2.35808,-0.39669 4.89979,-0.80807 7.58108,-1.25618 z m -3.79788,8.97684 c 10.54153,-2.26258 17.1162,-2.79883 17.1162,-2.79883 0,0 38.32416,-6.84649 69.03784,-12.61312 1.9467,1.14599 5.67113,3.53344 8.24958,6.36166 -25.86532,4.98058 -56.70387,11.25408 -82.4443,17.47617 -2.38012,-2.56378 -5.23772,-5.27445 -7.6766,-6.53062 -1.68224,-0.85948 -3.11471,-1.46185 -4.28272,-1.89526 z M 58.029523,341.31253 c 2.02749,1.14597 12.2311,4.3562 21.229974,9.74816 13.729696,8.2202 27.165553,19.81955 24.234503,23.60273 -1.08722,1.42514 -4.099084,4.60596 -6.317584,4.45905 C 94.972621,378.96092 41.2953,377.5651 41.2953,377.5651 c 0,0 -1.733668,8.3818 -0.631762,8.69035 1.116594,0.32321 309.245132,13.19343 320.609412,7.77943 11.37162,-5.43606 24.33,-44.03202 60.00224,-61.21435 15.91145,-7.66923 30.9414,-12.4368 42.72441,-15.3752 1.52062,0.82275 7.46355,4.20926 11.79035,8.5581 -15.5809,3.90809 -28.75965,7.7427 -36.99453,11.16594 -9.60858,4.00359 -18.7764,9.49841 -26.32811,15.44868 -11.37898,9.01356 -22.93425,28.47314 -32.14616,41.05686 -5.46543,7.43416 -10.73987,7.728 -16.07307,10.08608 -14.40553,6.42041 -324.20895,-7.54436 -324.20895,-7.54436 0,0 -5.531555,0.80807 -3.628936,6.80977 1.895286,6.00168 22.566953,26.00487 18.769067,26.95985 -3.768512,0.96233 -17.659807,-6.58203 -17.659807,-6.58203 0,0 1.087201,9.17518 2.828204,21.01694 1.733668,11.84914 6.941989,26.52646 7.889613,27.31249 0.954996,0.78602 15.162171,3.58485 15.162171,5.1569 0,1.57939 -15.948178,2.12301 -18.475206,1.49125 -2.519695,-0.62441 -12.311928,-43.57656 -12.311928,-43.57656 0,0 -0.462792,1.10926 -1.73365,19.12902 -3.97419,56.77733 39.859463,84.98602 91.244832,85.36067 8.66829,0.0515 17.18966,-1.52062 24.90297,-3.81993 2.52703,-0.28649 5.68582,-0.78602 9.66736,-1.52062 26.18854,-4.90714 36.14974,-31.41156 36.14974,-31.41156 l -79.39571,-2.74739 c 0,0 1.57203,10.10811 14.3541,16.86644 12.68656,6.69957 29.62646,3.13675 29.87624,3.07798 -8.46996,2.42418 -24.29327,5.72253 -35.87058,0.90355 -16.57261,-6.90525 -20.21623,-27.60631 -20.21623,-27.60631 l 255.4576,8.96948 c -0.015,0 -8.99885,4.85572 -18.00508,5.35524 -8.98417,0.49953 -17.04275,0.77133 -17.04275,0.77133 0,0 7.33868,18.21812 28.66415,31.17649 21.29609,12.9804 46.41211,10.51949 68.42076,10.2183 7.11094,-0.10287 12.6425,-1.63082 16.85911,-3.65831 0.66849,0.022 1.31494,0.0367 1.97608,0.0367 27.43735,-0.1102 50.8491,-21.53852 60.08304,-51.64247 5.1716,-2.04954 14.25126,-5.11283 29.50159,-8.97684 11.00432,-2.79883 24.62384,-4.55452 37.30304,-5.67111 1.01377,6.68488 3.48936,19.51834 8.32305,27.0627 6.74363,10.51949 20.57617,8.5875 20.57617,8.5875 16.55792,-0.52156 33.65209,-1.30759 48.18252,-1.34431 15.18419,-0.0587 27.48143,-33.96064 27.48143,-75.73007 0,-15.33848 -1.66021,-29.60442 -4.51046,-41.52701 0.13954,-0.3379 0.24976,-0.62441 0.3012,-0.83744 2.23318,-10.44604 -3.27633,-45.3249 -10.73255,-53.06025 0,0 -3.94479,-6.94199 -11.53323,-23.51459 -7.5664,-16.55792 -20.04726,-23.15464 -23.19872,-22.53023 -1.17536,0.24978 -21.65603,3.79789 -48.77017,8.98419 -1.85854,-2.11565 -4.37088,-4.64268 -6.44245,-5.72255 -0.52892,-0.26447 -1.00641,-0.49954 -1.45452,-0.69053 14.83896,-2.82087 27.026,-5.23771 30.77245,-6.25879 11.68752,-3.20287 16.73422,-5.75194 16.73422,-5.75194 0,0 -12.78205,-18.60745 -24.46222,-26.46769 -23.38237,-15.73517 -37.79524,-25.19683 -69.61816,-31.72009 -78.44809,-16.07307 -187.41884,-9.49839 -248.14834,-0.0735 -30.22884,15.98492 -66.62099,43.49575 -91.57539,67.16461 27.95893,-19.78281 56.11618,-39.3673 87.45429,-55.7636 69.95607,-3.68035 141.83681,-4.92917 211.74882,-1.07985 -3.83461,8.27895 -12.74533,27.9736 -17.74062,43.08436 -4.40027,13.38444 -6.97871,23.74231 -8.17611,28.97268 -7.48559,0.47014 -46.8235,-1.03579 -75.31868,-2.16707 -8.68299,2.5858 -21.58993,6.95666 -39.47012,14.39083 -38.35354,15.93351 -76.5528,42.29835 -76.5528,42.29835 0,0 11.82707,-11.88586 29.98642,-24.91768 14.75814,-10.56357 43.68674,-28.0985 54.00789,-34.2912 -1.30025,-1.97607 -2.64457,-5.42135 -5.0761,-5.86212 -3.47465,-0.6097 -93.75717,-1.57938 -96.92329,-1.24146 -1.5941,0.16154 -6.22942,1.9173 -10.40196,3.60689 -0.97702,0.40403 -1.99811,0.82275 -3.02655,1.22678 -2.696,1.13863 -4.72349,2.0128 -4.72349,2.0128 h -0.14687 c -25.46863,10.48276 -62.25011,26.31343 -94.41095,52.48727 22.55224,-22.36127 50.77564,-40.24146 79.8585,-53.09699 l -51.59845,-2.17436 c -38.44903,9.95385 -69.838555,23.10322 -98.194157,37.64098"
       fill-opacity="1"
       fill-rule="evenodd"
       id="path648"
       style="stroke-width:1.88058" />
    <g
       clip-path="url(#id1-4)"
       id="g652"
       transform="matrix(1.8805794,0,0,1.8805794,-35.705473,57.580119)">
      <path
         fill="#ff1616"
         d="m 154.40234,290.80859 c 0,0 53.53907,-21.33593 101.48047,-34.3789 47.9375,-13.05469 112.82031,-16.77344 116.60156,-15.52735 3.76954,1.25391 -24.67968,0.33594 -93.17968,16.20313 -68.5,15.85547 -99.97657,34.6289 -112.3086,35.41797 -12.34375,0.80078 -12.59375,-1.71485 -12.59375,-1.71485 z M 75.128906,244.72656 c 0,0 61.113284,5.40235 89.410154,2.88672 28.29297,-2.52344 47.77735,6.30859 47.77735,6.30859 l 12.94531,-0.65625 c 26.90625,-9.82812 47.01953,-11.28125 75.82812,-15.14453 11.58594,-1.55078 25.4336,4.5586 25.4336,4.5586 -22.70313,0.69531 -53.67188,5.13672 -81.20703,12.45312 -6.1211,1.6211 -12.30469,3.66016 -18.53907,4.92578 -38.65234,7.8711 -70.74609,19.94532 -111.28515,25.21485 -16.171878,2.10547 42.88672,-22.83203 58.17578,-24.16016 0,0 -22.92188,0.20313 -57.54688,2.71875 -34.624996,2.51563 -56.917965,5.87109 -56.917965,5.87109 0,0 12.972656,-4.84375 31.988281,-7.80468 19.011724,-2.96094 27.699224,-3.23828 27.699224,-3.23828 0,0 -69.136724,-0.87891 -75.742192,-3.26172 -6.605469,-2.39063 -5.71875,-7.6875 -5.71875,-7.6875 l 37.699218,-2.98438"
         fill-opacity="1"
         fill-rule="evenodd"
         id="path650" />
    </g>
  </g>
</svg>
