<svg xmlns="http://www.w3.org/2000/svg" xmlns:xlink="http://www.w3.org/1999/xlink" width="500" zoomAndPan="magnify" viewBox="0 0 375 374.999991" height="500" preserveAspectRatio="xMidYMid meet" version="1.0"><defs><g/><clipPath id="id1"><path d="M 1.859375 1.859375 L 372.84375 1.859375 L 372.84375 372.84375 L 1.859375 372.84375 Z M 1.859375 1.859375 " clip-rule="nonzero"/></clipPath><clipPath id="id2"><path d="M 93.359375 218.917969 L 303.023438 218.917969 L 303.023438 253.230469 L 93.359375 253.230469 Z M 93.359375 218.917969 " clip-rule="nonzero"/></clipPath></defs><g clip-path="url(#id1)"><path fill="#ff1616" d="M 187.351562 372.84375 C 137.828125 372.84375 91.195312 353.566406 56.203125 318.5 C 21.136719 283.507812 1.859375 236.875 1.859375 187.351562 C 1.859375 137.828125 21.136719 91.195312 56.203125 56.203125 C 91.195312 21.136719 137.828125 1.859375 187.351562 1.859375 C 236.875 1.859375 283.507812 21.136719 318.5 56.203125 C 353.566406 91.269531 372.84375 137.828125 372.84375 187.351562 C 372.84375 236.875 353.566406 283.507812 318.5 318.5 C 283.507812 353.566406 236.875 372.84375 187.351562 372.84375 Z M 187.351562 12.980469 C 140.792969 12.980469 96.980469 31.144531 64.0625 64.0625 C 31.144531 96.980469 12.980469 140.792969 12.980469 187.351562 C 12.980469 233.910156 31.144531 277.722656 64.0625 310.640625 C 96.980469 343.558594 140.792969 361.722656 187.351562 361.722656 C 233.910156 361.722656 277.722656 343.558594 310.640625 310.640625 C 343.558594 277.722656 361.722656 233.910156 361.722656 187.351562 C 361.722656 140.792969 343.558594 96.980469 310.640625 64.0625 C 277.722656 31.144531 233.910156 12.980469 187.351562 12.980469 Z M 187.351562 12.980469 " fill-opacity="1" fill-rule="nonzero"/></g><path fill="#ff1616" d="M 245.667969 136.292969 C 254.773438 140.675781 261.195312 145.402344 261.195312 145.402344 C 261.195312 145.402344 254.832031 146.804688 249.214844 148.035156 C 248.960938 146.484375 248.289062 143.082031 246.941406 139.464844 C 246.441406 138.117188 246.019531 137.078125 245.667969 136.292969 Z M 232.511719 195.242188 C 232.054688 195.429688 231.570312 196 231.394531 195.542969 C 231.210938 195.082031 231.429688 194.5625 231.886719 194.378906 C 236.378906 192.550781 251.140625 186.386719 255.195312 189.703125 C 255.746094 190.15625 255.988281 190.699219 255.980469 191.308594 C 255.964844 191.84375 255.738281 192.378906 255.332031 192.898438 C 251.6875 197.53125 241.097656 199.664062 234.71875 207.25 C 234.523438 207.703125 234.007812 207.910156 233.554688 207.722656 C 233.105469 207.523438 232.898438 207.003906 233.09375 206.554688 C 233.09375 206.546875 233.871094 204.730469 236.269531 202.359375 C 237.476562 201.164062 240.09375 199.5625 242.925781 198.007812 C 244.652344 197.058594 254.796875 192.777344 254.457031 190.632812 C 253.976562 187.53125 235.597656 193.027344 232.511719 195.242188 Z M 280.425781 180.910156 C 282.359375 184.601562 283.429688 191.484375 283.011719 199.363281 C 282.394531 211.164062 278.6875 220.734375 274.734375 220.746094 C 272.828125 220.75 271.207031 218.523438 270.117188 214.886719 C 271.074219 216.714844 272.253906 217.761719 273.558594 217.757812 C 275.851562 217.75 278.0625 214.523438 279.636719 209.5 C 279.5 208.507812 279.167969 206.425781 278.472656 204.25 C 277.792969 202.121094 276.726562 200.640625 276.148438 199.941406 C 276.078125 200.640625 275.898438 201.699219 275.464844 203.253906 C 274.523438 206.644531 272.578125 209.371094 271.847656 209.550781 C 271.121094 209.726562 270.96875 209.273438 270.988281 208.984375 C 271.003906 208.6875 272.578125 207.082031 273.8125 204.046875 C 275.050781 201.007812 275.015625 199.414062 275.015625 199.414062 L 275.109375 199.363281 C 274.914062 199.179688 274.65625 198.964844 274.324219 198.710938 C 272.914062 197.605469 269.984375 195.726562 269.984375 195.726562 C 269.984375 195.726562 269.710938 194.605469 269.984375 194.46875 C 270.554688 194.183594 273.945312 196.828125 275.484375 198.191406 C 275.886719 196.691406 276.628906 193.25 276.429688 188.992188 C 276.15625 183.238281 275.367188 181.429688 275.367188 181.429688 C 275.367188 181.429688 276.820312 181.425781 277.570312 183.945312 C 278.3125 186.464844 278.117188 192.210938 277.6875 195.445312 C 277.539062 196.53125 277.34375 197.332031 277.140625 197.929688 C 277.695312 197.523438 278.464844 196.875 279.296875 195.914062 C 280.910156 194.058594 281.027344 193.367188 281.242188 193.445312 C 281.460938 193.523438 281.539062 194.484375 279.988281 196.558594 C 278.90625 198.007812 277.90625 198.71875 277.285156 199.046875 C 277.6875 199.328125 278.15625 199.757812 278.710938 200.40625 C 279.863281 201.769531 280.476562 203.582031 280.789062 204.914062 C 281.3125 202.300781 281.675781 199.414062 281.835938 196.375 C 282.15625 190.289062 281.589844 184.796875 280.425781 180.910156 Z M 262.910156 201.289062 C 266.738281 191.390625 263.058594 180.480469 267.980469 170.109375 C 270.46875 164.863281 277.664062 164.226562 280.867188 169.039062 C 280.867188 169.039062 277.253906 167.476562 274.34375 169.222656 C 264.914062 174.875 269.921875 195.191406 262.910156 201.289062 Z M 205.070312 179.726562 C 205.070312 179.726562 211.101562 177.03125 216.964844 179.53125 C 222.835938 182.035156 223.988281 187.335938 223.988281 187.335938 C 223.988281 187.335938 221.054688 181.515625 215.453125 180.433594 C 209.84375 179.347656 205.070312 179.726562 205.070312 179.726562 Z M 206.105469 201.914062 C 204.976562 199.078125 202.023438 192.765625 201.613281 192.324219 C 201.09375 191.746094 200.359375 193.378906 200.832031 194.375 C 201.300781 195.367188 205.257812 202.636719 205.570312 203.5 C 205.886719 204.363281 206.277344 205.59375 206.277344 205.59375 C 206.410156 204.617188 206.46875 202.832031 206.105469 201.914062 Z M 208.921875 183.351562 C 210.621094 183.640625 212.25 184.191406 213.769531 184.957031 C 214.089844 184.996094 214.5625 185.28125 214.941406 185.609375 C 221.109375 189.332031 225.328125 196.84375 225.328125 205.535156 C 225.328125 217.945312 216.710938 228.042969 206.074219 228.078125 C 199.488281 228.101562 193.675781 224.253906 190.203125 218.371094 C 190.617188 217.898438 191.242188 217.183594 191.816406 216.511719 C 192.066406 216.886719 192.324219 217.25 192.582031 217.601562 C 193.386719 217.023438 200.617188 211.753906 202.441406 209.765625 C 204.375 207.660156 204.644531 205.886719 205.070312 206.207031 C 205.5 206.527344 204.484375 209.542969 203.140625 211.324219 C 201.898438 212.96875 196.085938 219.222656 194.777344 220.039062 C 197.730469 222.78125 201.464844 224.414062 205.535156 224.402344 C 208.097656 224.394531 210.527344 223.738281 212.714844 222.558594 C 212.035156 219.304688 210.441406 212.03125 209.476562 210.339844 C 208.222656 208.136719 207.167969 206.988281 207.746094 206.929688 C 208.324219 206.875 210.941406 209.335938 211.363281 210.121094 C 211.679688 210.714844 214.234375 217.351562 215.269531 220.859375 C 219.800781 217.214844 222.777344 211.117188 222.777344 204.207031 C 222.777344 203.902344 222.773438 203.59375 222.761719 203.289062 C 221.191406 203.753906 213.320312 205.605469 211.992188 205.367188 C 210.550781 205.105469 209.84375 204.847656 209.765625 204.640625 C 209.6875 204.429688 210.578125 204.449219 210.578125 204.449219 C 210.578125 204.449219 213.5625 204.261719 216.160156 203.460938 C 218.09375 202.867188 221.089844 201.601562 222.5625 201.03125 C 221.808594 195.476562 219.105469 190.683594 215.296875 187.632812 C 214.539062 190.617188 212.253906 198.101562 211.101562 200.039062 C 209.6875 202.410156 208.691406 202.09375 208.691406 202.09375 C 208.691406 202.09375 209.925781 199.875 210.554688 197.828125 C 211.089844 196.082031 212.742188 188.929688 213.253906 186.230469 C 212.902344 186.023438 212.539062 185.835938 212.171875 185.652344 L 212.164062 185.648438 C 211.851562 185.5 211.535156 185.355469 211.210938 185.226562 C 210.433594 184.832031 209.382812 184.183594 208.921875 183.351562 Z M 163.679688 193.6875 C 163.679688 193.6875 181.550781 191.734375 182.28125 191.835938 C 183.019531 191.9375 188.046875 203.796875 188.253906 206.109375 C 188.464844 208.417969 185.53125 210.527344 184.695312 210.476562 C 183.855469 210.421875 166.667969 210.382812 164.414062 209.757812 C 162.15625 209.132812 161.582031 208.976562 161.796875 208.507812 C 162.003906 208.03125 174.160156 207.835938 177.878906 207.5625 C 181.597656 207.277344 182.648438 206.703125 182.597656 206.332031 C 182.542969 205.964844 179.398438 196.679688 177.617188 196.265625 C 175.835938 195.851562 165.40625 195.152344 163.886719 194.789062 C 162.371094 194.429688 163.679688 193.6875 163.679688 193.6875 Z M 158.230469 178.261719 C 158.230469 178.261719 180.398438 178.1875 180.921875 178.078125 C 181.441406 177.972656 183.640625 173.765625 187.890625 169.234375 C 192.132812 164.703125 193.285156 164.117188 193.285156 164.117188 C 193.285156 164.117188 192.292969 163.230469 190.457031 163.339844 C 187.4375 163.523438 180.769531 164.144531 173.546875 166.398438 C 165.925781 168.785156 157.804688 172.898438 157.394531 176.484375 C 157.230469 177.847656 158.230469 178.261719 158.230469 178.261719 Z M 89.058594 194.046875 C 89.058594 194.046875 88.539062 197.355469 90.269531 201.972656 C 91.996094 206.589844 94.09375 208.421875 94.777344 208.625 C 95.453125 208.835938 153.566406 210.402344 152.9375 208.613281 C 152.308594 206.832031 99.703125 205.0625 99.226562 202.9375 C 98.757812 200.8125 154.566406 204.195312 154.089844 202.332031 C 153.621094 200.472656 101.0625 198.519531 101.53125 197.261719 C 102.007812 196 155.242188 197.261719 153.566406 196.53125 C 151.890625 195.804688 89.058594 194.046875 89.058594 194.046875 Z M 195.015625 201.667969 C 195.015625 201.667969 197.480469 188.578125 198.15625 185.535156 C 198.839844 182.488281 199.9375 175.757812 202.613281 172.863281 C 205.285156 169.964844 212.097656 166.941406 217.28125 168.347656 C 218.886719 168.777344 220.128906 169.746094 221.078125 170.890625 L 221.078125 170.882812 C 221.078125 170.882812 265.1875 160.820312 266.285156 161.050781 C 267.390625 161.289062 223.402344 173.425781 223.199219 174.601562 C 223.699219 175.875 223.890625 176.828125 223.890625 176.828125 C 223.890625 176.828125 220.117188 171.484375 214.875 172.398438 C 209.636719 173.308594 205.179688 174.636719 203.613281 178.578125 C 202.035156 182.527344 199.46875 192.777344 198.109375 196.304688 C 196.742188 199.824219 195.015625 201.667969 195.015625 201.667969 Z M 220.515625 153.136719 C 221.363281 151.0625 223.230469 146.777344 224.410156 145.941406 C 225.988281 144.835938 236.9375 144.691406 237.667969 145.007812 C 238.210938 145.238281 237.917969 148.4375 236.460938 150.570312 C 238.894531 150.171875 240.792969 149.847656 241.652344 149.671875 C 242.480469 149.496094 243.871094 149.195312 245.535156 148.835938 C 245.339844 147.492188 244.929688 145.085938 244.113281 141.777344 C 243.347656 138.667969 242.289062 136.070312 241.546875 134.445312 C 238.433594 133.242188 234.816406 132.402344 231.25 131.820312 C 228.636719 132.101562 226.4375 133.078125 224.882812 135.492188 C 223.304688 137.9375 219.136719 150.171875 217.996094 153.554688 C 218.78125 153.421875 219.625 153.285156 220.515625 153.136719 Z M 219.253906 156.121094 C 222.753906 155.371094 224.933594 155.191406 224.933594 155.191406 C 224.933594 155.191406 237.65625 152.914062 247.851562 151 C 248.5 151.378906 249.734375 152.171875 250.589844 153.113281 C 242.003906 154.769531 231.765625 156.855469 223.222656 158.917969 C 222.429688 158.066406 221.484375 157.167969 220.675781 156.75 C 220.117188 156.464844 219.640625 156.265625 219.253906 156.121094 Z M 82.144531 164.601562 C 82.816406 164.984375 86.203125 166.046875 89.191406 167.839844 C 93.75 170.574219 98.210938 174.429688 97.234375 175.683594 C 96.875 176.160156 95.875 177.214844 95.136719 177.167969 C 94.40625 177.113281 76.589844 176.648438 76.589844 176.648438 C 76.589844 176.648438 76.011719 179.4375 76.382812 179.539062 C 76.75 179.648438 179.03125 183.921875 182.804688 182.125 C 186.578125 180.316406 190.878906 167.488281 202.71875 161.777344 C 208 159.230469 212.992188 157.644531 216.902344 156.667969 C 217.40625 156.941406 219.378906 158.066406 220.816406 159.515625 C 215.644531 160.8125 211.269531 162.085938 208.535156 163.226562 C 205.347656 164.554688 202.304688 166.382812 199.796875 168.359375 C 196.019531 171.355469 192.183594 177.824219 189.125 182.003906 C 187.3125 184.476562 185.5625 184.570312 183.789062 185.355469 C 179.007812 187.488281 76.175781 182.847656 76.175781 182.847656 C 76.175781 182.847656 74.335938 183.117188 74.96875 185.113281 C 75.597656 187.105469 82.460938 193.753906 81.199219 194.070312 C 79.949219 194.390625 75.335938 191.886719 75.335938 191.886719 C 75.335938 191.886719 75.699219 194.933594 76.273438 198.871094 C 76.851562 202.808594 78.578125 207.683594 78.894531 207.945312 C 79.210938 208.207031 83.929688 209.136719 83.929688 209.660156 C 83.929688 210.183594 78.632812 210.367188 77.796875 210.15625 C 76.957031 209.949219 73.707031 195.671875 73.707031 195.671875 C 73.707031 195.671875 73.554688 196.042969 73.132812 202.03125 C 71.8125 220.902344 86.363281 230.277344 103.421875 230.398438 C 106.296875 230.417969 109.125 229.894531 111.6875 229.132812 C 112.523438 229.035156 113.574219 228.871094 114.894531 228.625 C 123.585938 226.992188 126.894531 218.183594 126.894531 218.183594 L 100.539062 217.273438 C 100.539062 217.273438 101.0625 220.632812 105.304688 222.878906 C 109.515625 225.105469 115.136719 223.921875 115.222656 223.902344 C 112.410156 224.707031 107.15625 225.800781 103.316406 224.199219 C 97.8125 221.90625 96.605469 215.027344 96.605469 215.027344 L 181.402344 218.007812 C 181.398438 218.007812 178.414062 219.621094 175.425781 219.789062 C 172.441406 219.953125 169.769531 220.042969 169.769531 220.042969 C 169.769531 220.042969 172.203125 226.097656 179.28125 230.40625 C 186.351562 234.71875 194.6875 233.902344 201.996094 233.800781 C 204.351562 233.765625 206.191406 233.257812 207.589844 232.585938 C 207.8125 232.59375 208.027344 232.597656 208.246094 232.597656 C 217.355469 232.5625 225.125 225.441406 228.191406 215.433594 C 229.90625 214.753906 232.921875 213.734375 237.984375 212.449219 C 241.636719 211.519531 246.15625 210.9375 250.363281 210.566406 C 250.703125 212.789062 251.523438 217.054688 253.128906 219.558594 C 255.367188 223.054688 259.957031 222.414062 259.957031 222.414062 C 265.453125 222.242188 271.128906 221.980469 275.953125 221.96875 C 280.992188 221.949219 285.074219 210.679688 285.074219 196.796875 C 285.074219 191.699219 284.519531 186.960938 283.578125 183 C 283.625 182.886719 283.660156 182.789062 283.675781 182.71875 C 284.417969 179.246094 282.589844 167.65625 280.113281 165.085938 C 280.113281 165.085938 278.804688 162.777344 276.285156 157.269531 C 273.773438 151.765625 269.632812 149.574219 268.585938 149.78125 C 268.195312 149.867188 261.394531 151.046875 252.394531 152.769531 C 251.777344 152.0625 250.945312 151.222656 250.257812 150.867188 C 250.082031 150.777344 249.921875 150.699219 249.777344 150.636719 C 254.699219 149.699219 258.746094 148.894531 259.988281 148.558594 C 263.871094 147.492188 265.542969 146.644531 265.542969 146.644531 C 265.542969 146.644531 261.300781 140.460938 257.421875 137.847656 C 249.664062 132.621094 244.878906 129.476562 234.316406 127.304688 C 208.277344 121.964844 172.105469 124.148438 151.945312 127.28125 C 141.910156 132.597656 129.832031 141.738281 121.546875 149.605469 C 130.828125 143.03125 140.171875 136.519531 150.578125 131.070312 C 173.796875 129.847656 197.65625 129.433594 220.863281 130.710938 C 219.59375 133.464844 216.632812 140.011719 214.976562 145.03125 C 213.515625 149.480469 212.660156 152.921875 212.261719 154.660156 C 209.777344 154.816406 196.71875 154.316406 187.261719 153.941406 C 184.378906 154.800781 180.09375 156.253906 174.160156 158.722656 C 161.425781 164.015625 148.75 172.78125 148.75 172.78125 C 148.75 172.78125 152.675781 168.828125 158.699219 164.5 C 163.601562 160.988281 173.203125 155.160156 176.628906 153.101562 C 176.195312 152.445312 175.75 151.300781 174.945312 151.15625 C 173.792969 150.949219 143.820312 150.628906 142.769531 150.742188 C 142.242188 150.796875 140.703125 151.378906 139.316406 151.941406 C 138.992188 152.074219 138.65625 152.214844 138.3125 152.347656 C 137.417969 152.726562 136.746094 153.019531 136.746094 153.019531 L 136.699219 153.019531 C 128.242188 156.5 116.035156 161.761719 105.359375 170.460938 C 112.84375 163.03125 122.214844 157.085938 131.867188 152.816406 L 114.738281 152.09375 C 101.976562 155.402344 91.554688 159.769531 82.144531 164.601562 " fill-opacity="1" fill-rule="evenodd"/><g clip-path="url(#id2)"><path fill="#ff1616" d="M 166.683594 252.058594 C 166.683594 252.058594 200.105469 238.726562 230.03125 230.574219 C 259.957031 222.414062 300.460938 220.089844 302.820312 220.871094 C 305.171875 221.652344 287.414062 221.078125 244.652344 230.996094 C 201.894531 240.90625 182.246094 252.636719 174.546875 253.132812 C 166.839844 253.632812 166.683594 252.058594 166.683594 252.058594 Z M 117.199219 223.257812 C 117.199219 223.257812 155.347656 226.636719 173.011719 225.0625 C 190.675781 223.488281 202.839844 229.007812 202.839844 229.007812 L 210.917969 228.597656 C 227.714844 222.453125 240.269531 221.542969 258.253906 219.132812 C 265.484375 218.160156 274.128906 221.980469 274.128906 221.980469 C 259.957031 222.414062 240.625 225.191406 223.4375 229.761719 C 219.617188 230.777344 215.753906 232.050781 211.863281 232.84375 C 187.734375 237.761719 167.703125 245.308594 142.398438 248.601562 C 132.300781 249.917969 169.167969 234.332031 178.710938 233.5 C 178.710938 233.5 164.402344 233.628906 142.789062 235.199219 C 121.175781 236.773438 107.257812 238.871094 107.257812 238.871094 C 107.257812 238.871094 115.355469 235.84375 127.226562 233.992188 C 139.09375 232.140625 144.519531 231.96875 144.519531 231.96875 C 144.519531 231.96875 101.359375 231.417969 97.234375 229.929688 C 93.113281 228.433594 93.664062 225.125 93.664062 225.125 L 117.199219 223.257812 " fill-opacity="1" fill-rule="evenodd"/></g><path stroke-linecap="butt" transform="matrix(0.00106538, -0.749999, 0.749999, 0.00106538, 26.297464, 198.172312)" fill="none" stroke-linejoin="miter" d="M 1.370661 7.533734 L 1.370572 14.804575 L 4.834118 14.804864 L 4.836783 38.679885 L 1.368029 38.679604 L 1.368014 46.002529 L 19.644068 45.997401 L 19.64409 38.679685 L 16.227419 38.67933 L 16.229963 14.804301 L 19.641425 14.804663 L 19.641513 7.533822 Z M 1.370661 7.533734 " stroke="#ff1616" stroke-width="1.547989" stroke-opacity="1" stroke-miterlimit="4"/><path stroke-linecap="butt" transform="matrix(0.161154, -0.732482, 0.732482, 0.161154, 26.806288, 170.679188)" fill="none" stroke-linejoin="miter" d="M 1.369324 7.535909 L 1.3694 14.735305 L 4.462922 14.737307 L 4.462055 38.730207 L 1.369652 38.733291 L 1.369017 46.002171 L 19.143234 46.000662 L 19.14387 38.731782 L 15.800084 38.731512 L 15.799994 30.198894 C 20.690541 30.200165 21.29526 31.421677 21.296024 36.418434 C 21.29711 42.871002 24.759456 46.65821 31.975231 46.659864 C 38.075291 46.656341 40.008901 42.428569 40.011193 37.857771 L 40.007397 34.834853 L 36.317309 34.836112 L 36.316311 36.649517 C 36.312863 37.748853 35.887216 38.407787 35.050557 38.410543 C 34.058551 38.410146 33.73777 37.02484 33.735405 34.662887 C 33.736991 30.694862 30.319921 27.404318 26.519141 26.853978 C 31.091356 26.184013 34.500831 23.162076 34.501396 18.874301 C 34.502755 12.602514 32.028332 7.536705 19.266131 7.534093 Z M 15.798813 14.68042 L 18.540946 14.685071 C 21.739559 14.679951 23.553998 16.33392 23.549963 19.587876 C 23.551723 22.504584 21.454294 24.04862 18.269822 24.045296 L 15.80054 24.04461 Z M 15.798813 14.68042 " stroke="#ff1616" stroke-width="1.547989" stroke-opacity="1" stroke-miterlimit="4"/><path stroke-linecap="butt" transform="matrix(0.350151, -0.663245, 0.663245, 0.350151, 37.84906, 128.654231)" fill="none" stroke-linejoin="miter" d="M 20.531217 46.994601 C 32.95841 46.994861 39.903195 39.388321 39.903454 26.961128 C 39.902312 14.575902 33.628734 6.48568 20.136876 6.487983 C 8.746455 6.488107 0.822164 14.682438 0.82171 26.57378 C 0.822893 40.331261 9.028968 46.994867 20.531217 46.994601 Z M 20.529001 38.355728 C 17.006303 38.354371 14.417072 33.784601 14.413752 26.571593 C 14.41675 19.749854 16.728196 14.913345 20.08431 14.96731 C 24.317509 14.964613 26.143105 20.296799 26.145974 26.962312 C 26.145407 33.788657 23.998087 38.35594 20.529001 38.355728 Z M 20.529001 38.355728 " stroke="#ff1616" stroke-width="1.547989" stroke-opacity="1" stroke-miterlimit="4"/><path stroke-linecap="butt" transform="matrix(0.520406, -0.540072, 0.540072, 0.520406, 59.806527, 90.632747)" fill="none" stroke-linejoin="miter" d="M 43.527181 14.629624 L 43.526139 7.535219 L 26.965164 7.537516 L 26.962593 14.62817 L 30.712317 14.631405 L 30.712522 27.729868 L 17.222359 7.537331 L 1.423944 7.535352 L 1.424987 14.629757 L 4.622242 14.630113 L 4.621474 38.904241 L 1.368918 38.906543 L 1.369961 46.000947 L 18.27345 46.001319 L 18.272407 38.906914 L 14.025379 38.905508 L 14.024921 25.026142 L 28.064192 45.998709 L 39.902928 45.997244 L 39.902653 14.628711 Z M 43.527181 14.629624 " stroke="#ff1616" stroke-width="1.547989" stroke-opacity="1" stroke-miterlimit="4"/><path stroke-linecap="butt" transform="matrix(0.689576, -0.294931, 0.294931, 0.689576, 110.59151, 47.938708)" fill="none" stroke-linejoin="miter" d="M 1.368837 45.997669 L 17.936025 46.002547 C 31.476318 45.998714 39.071043 38.78425 39.066586 26.252008 C 39.069766 15.728339 31.476671 7.535491 18.164793 7.535052 L 1.36919 7.534447 L 1.370448 14.802806 L 4.779631 14.805079 L 4.782878 38.677551 L 1.371647 38.680067 Z M 16.067028 38.677434 L 16.070618 14.802222 L 18.166051 14.803412 C 23.994828 14.803899 26.413729 20.353233 26.412607 26.249715 C 26.416313 33.128257 23.991842 38.571741 18.162461 38.678624 Z M 16.067028 38.677434 " stroke="#ff1616" stroke-width="1.547989" stroke-opacity="1" stroke-miterlimit="4"/><path stroke-linecap="butt" transform="matrix(0.741503, -0.112575, 0.112575, 0.741503, 150.178267, 32.941961)" fill="none" stroke-linejoin="miter" d="M 1.370768 7.535173 L 1.368132 14.804636 L 4.834567 14.804109 L 4.834312 38.678722 L 1.367877 38.679248 L 1.367722 46.001768 L 34.556642 45.999026 L 34.553798 33.560808 L 25.045056 33.560624 L 25.042906 38.675542 L 16.229511 38.675566 L 16.230779 29.714863 L 26.697806 29.718297 L 26.692812 22.394995 L 16.230934 22.392343 L 16.228984 14.806103 L 25.042379 14.806079 L 25.042949 19.694885 L 34.556841 19.69585 L 34.553757 7.5368 Z M 1.370768 7.535173 " stroke="#ff1616" stroke-width="1.547989" stroke-opacity="1" stroke-miterlimit="4"/><path stroke-linecap="butt" transform="matrix(0.746257, 0.0748352, -0.0748352, 0.746257, 189.444381, 28.452391)" fill="none" stroke-linejoin="miter" d="M 37.754211 7.537093 L 0.819669 7.534921 L 0.820538 21.845838 L 8.923354 21.844622 L 8.918806 14.804734 L 13.650415 14.801346 L 13.652387 38.675504 L 9.135333 38.678314 L 9.13685 46.001166 L 29.608706 46.00014 L 29.612371 38.676768 L 25.042974 38.679593 L 25.041002 14.805435 L 29.662742 14.802596 L 29.662108 21.843003 L 37.75456 21.842827 Z M 37.754211 7.537093 " stroke="#ff1616" stroke-width="1.547989" stroke-opacity="1" stroke-miterlimit="4"/><path stroke-linecap="butt" transform="matrix(0.697543, 0.27556, -0.27556, 0.697543, 231.24544, 34.141843)" fill="none" stroke-linejoin="miter" d="M 44.471194 46.001517 L 44.470171 38.783507 L 40.612118 38.784404 L 30.871999 7.536906 L 9.7422 7.534482 L 9.739876 14.630614 L 11.996293 14.629633 L 4.564647 38.783898 L 0.818784 38.785275 L 0.817893 45.998441 L 18.323707 45.998895 L 18.324598 38.785729 L 14.024542 38.787635 L 15.17987 35.049623 L 26.468711 35.047648 L 27.621051 38.786831 L 22.395429 38.784776 L 22.394539 45.997942 Z M 17.222775 28.440975 L 20.796054 16.562954 L 24.440785 28.439952 Z M 17.222775 28.440975 " stroke="#ff1616" stroke-width="1.547989" stroke-opacity="1" stroke-miterlimit="4"/><path stroke-linecap="butt" transform="matrix(0.617154, 0.42617, -0.42617, 0.617154, 272.969166, 53.201656)" fill="none" stroke-linejoin="miter" d="M 1.373502 7.535395 L 1.372392 14.802379 L 4.835417 14.803554 L 4.838503 38.676138 L 1.371193 38.677922 L 1.371003 46.001236 L 19.642398 45.998701 L 19.642587 38.675387 L 16.22732 38.679211 L 16.228519 14.803667 L 19.639501 14.802804 L 19.640611 7.535819 Z M 1.373502 7.535395 " stroke="#ff1616" stroke-width="1.547989" stroke-opacity="1" stroke-miterlimit="4"/><path stroke-linecap="butt" transform="matrix(0.522359, 0.538183, -0.538183, 0.522359, 294.79733, 69.054694)" fill="none" stroke-linejoin="miter" d="M 1.367973 7.534374 L 1.369586 14.801418 L 4.408312 14.803961 L 4.407206 38.675173 L 1.372217 38.676257 L 1.370972 45.998593 L 32.188801 45.999183 L 32.188981 31.693407 L 22.943973 31.691383 L 22.948775 38.678452 L 15.851124 38.677537 L 15.855857 14.802588 L 18.765643 14.803372 L 18.771394 7.536218 Z M 1.367973 7.534374 " stroke="#ff1616" stroke-width="1.547989" stroke-opacity="1" stroke-miterlimit="4"/><path stroke-linecap="butt" transform="matrix(0.407568, 0.629594, -0.629594, 0.407568, 318.956556, 96.17229)" fill="none" stroke-linejoin="miter" d="M 1.368546 7.53629 L 1.372709 14.804336 L 4.836966 14.800933 L 4.836939 38.67544 L 1.372682 38.678843 L 1.368861 45.997559 L 19.639545 45.999519 L 19.638994 38.677973 L 16.226697 38.677785 L 16.231096 14.806108 L 19.643393 14.806296 L 19.642061 7.533878 Z M 1.368546 7.53629 " stroke="#ff1616" stroke-width="1.547989" stroke-opacity="1" stroke-miterlimit="4"/><path stroke-linecap="butt" transform="matrix(0.255372, 0.705184, -0.705184, 0.255372, 333.777434, 119.716867)" fill="none" stroke-linejoin="miter" d="M 43.529042 14.627958 L 43.526755 7.536785 L 26.96377 7.537844 L 26.966058 14.629016 L 30.710994 14.628053 L 30.71369 27.729548 L 17.226749 7.534741 L 1.42334 7.533902 L 1.423854 14.629972 L 4.620133 14.629736 L 4.620741 38.903307 L 1.368397 38.905397 L 1.368911 46.001467 L 18.269634 46.00085 L 18.274017 38.906554 L 14.02492 38.907741 L 14.02742 25.027082 L 28.064494 45.997201 L 39.90048 46.001524 L 39.901132 14.626986 Z M 43.529042 14.627958 " stroke="#ff1616" stroke-width="1.547989" stroke-opacity="1" stroke-miterlimit="4"/><path stroke-linecap="butt" transform="matrix(0.0456463, 0.74861, -0.74861, 0.0456463, 347.882326, 164.706318)" fill="none" stroke-linejoin="miter" d="M 28.671042 46.001475 L 39.675947 45.999373 L 39.67454 32.244622 L 41.876624 32.243225 L 41.875477 26.357244 L 23.607068 26.359986 L 23.603333 32.240452 L 26.963645 32.241843 L 26.963583 34.553417 C 26.145427 35.990662 24.815961 37.255844 21.685342 37.252803 C 16.890005 37.252617 14.14922 32.738899 14.147187 27.1242 C 14.14921 21.614108 17.225366 16.776735 21.686719 16.777429 C 24.921945 16.776411 27.78382 19.304235 27.960515 23.765968 L 37.806875 23.766277 L 37.805276 7.53296 L 29.61292 7.534362 L 28.45812 11.497468 C 27.56756 10.613503 25.70288 6.878508 17.719422 6.876993 C 9.135897 6.875416 0.821569 15.124267 0.820311 27.125606 C 0.820829 39.012257 8.478425 46.497396 18.111005 46.495105 C 22.342666 46.497447 25.757562 44.576723 26.962386 42.531676 Z M 28.671042 46.001475 " stroke="#ff1616" stroke-width="1.547989" stroke-opacity="1" stroke-miterlimit="4"/><g fill="#ff1616" fill-opacity="1"><g transform="translate(53.963206, 265.781197)"><g><path d="M 16.667969 0.617188 L 12.519531 -5.347656 L 1.574219 2.261719 L 5.722656 8.230469 C 9.3125 13.390625 12.417969 13.886719 15.628906 11.652344 L 16.429688 11.09375 C 19.640625 8.863281 20.257812 5.78125 16.667969 0.617188 Z M 14.941406 10.667969 C 12.167969 12.597656 9.730469 12.046875 6.632812 7.59375 L 3.144531 2.578125 L 12.269531 -3.765625 L 15.757812 1.25 C 18.851562 5.703125 18.519531 8.179688 15.746094 10.109375 Z M 14.941406 10.667969 "/></g></g></g><g fill="#ff1616" fill-opacity="1"><g transform="translate(68.15682, 285.478168)"><g><path d="M 19.710938 3.027344 L 20.457031 2.328125 L 11.613281 -7.109375 L 1.882812 2.011719 L 10.730469 11.445312 L 11.476562 10.75 L 3.421875 2.15625 L 7.035156 -1.234375 L 14.527344 6.757812 L 15.273438 6.058594 L 7.78125 -1.933594 L 11.65625 -5.566406 Z M 19.710938 3.027344 "/></g></g></g><g fill="#ff1616" fill-opacity="1"><g transform="translate(82.656149, 300.466048)"><g><path d="M 19.339844 -1.257812 L 8.476562 -10.292969 L 7.792969 -9.472656 L 12.78125 -5.324219 L 4.9375 4.105469 L 5.824219 4.847656 L 13.671875 -4.585938 L 18.660156 -0.4375 Z M 19.339844 -1.257812 "/></g></g></g><g fill="#ff1616" fill-opacity="1"><g transform="translate(96.419399, 311.705472)"><g><path d="M 12.457031 8.03125 L 13.5625 8.742188 L 14.621094 -6.441406 L 13.480469 -7.175781 L 0.09375 0.0585938 L 1.195312 0.769531 L 3.832031 -0.652344 L 12.664062 5.042969 Z M 4.9375 -1.261719 L 13.433594 -5.828125 L 12.761719 3.785156 Z M 4.9375 -1.261719 "/></g></g></g><g fill="#ff1616" fill-opacity="1"><g transform="translate(113.266613, 322.08628)"><g><path d="M 2.449219 1.261719 L 3.476562 1.792969 L 9.589844 -10.058594 L 8.5625 -10.585938 Z M 2.449219 1.261719 "/></g></g></g><g fill="#ff1616" fill-opacity="1"><g transform="translate(122.325223, 326.815265)"><g><path d="M 8.570312 -10.929688 L 7.496094 -11.359375 L 2.539062 1.015625 L 13.925781 5.578125 L 14.304688 4.628906 L 3.988281 0.496094 Z M 8.570312 -10.929688 "/></g></g></g><g fill="#ff1616" fill-opacity="1"><g transform="translate(140.494593, 333.678821)"><g><path d="M 2.644531 0.777344 L 3.753906 1.101562 L 7.515625 -11.6875 L 6.40625 -12.015625 Z M 2.644531 0.777344 "/></g></g></g><g fill="#ff1616" fill-opacity="1"><g transform="translate(150.386837, 336.756122)"><g><path d="M 18.164062 -10.296875 L 16.027344 1.648438 L 6.589844 -12.367188 L 5.058594 -12.640625 L 2.710938 0.484375 L 3.851562 0.6875 L 5.984375 -11.253906 L 15.421875 2.757812 L 16.953125 3.03125 L 19.300781 -10.09375 Z M 18.164062 -10.296875 "/></g></g></g><g fill="#ff1616" fill-opacity="1"><g transform="translate(174.164514, 340.701471)"><g><path d="M 11.136719 -6.570312 L 11.117188 -5.550781 L 17.558594 -5.414062 C 17.179688 -2.113281 14.75 -0.582031 10.148438 -0.679688 C 5.152344 -0.78125 3.035156 -2.648438 3.105469 -6.113281 L 3.125 -7.09375 C 3.195312 -10.558594 5.5 -12.332031 10.5 -12.230469 C 14.964844 -12.136719 17.113281 -10.648438 17.398438 -8.375 L 18.644531 -8.347656 C 18.390625 -11.222656 15.855469 -13.230469 10.523438 -13.339844 C 4.65625 -13.460938 2.007812 -11.117188 1.925781 -7.117188 L 1.90625 -6.140625 C 1.824219 -2.140625 4.261719 0.308594 10.125 0.433594 C 13.992188 0.511719 16.347656 -0.507812 17.5 -2.460938 L 17.664062 0.367188 L 18.597656 0.382812 L 18.738281 -6.414062 Z M 11.136719 -6.570312 "/></g></g></g><g fill="#ff1616" fill-opacity="1"><g transform="translate(198.420446, 340.637291)"><g/></g></g><g fill="#ff1616" fill-opacity="1"><g transform="translate(210.966281, 339.468937)"><g><path d="M 13.378906 -11.976562 L 14.511719 -12.214844 C 13.828125 -15.433594 11.140625 -16.203125 6.46875 -15.210938 C 0.925781 -14.03125 -0.757812 -12.222656 -0.375 -10.417969 L -0.273438 -9.9375 C 0.199219 -7.722656 2.171875 -7.414062 7.503906 -7.980469 C 12.746094 -8.546875 14.050781 -8.1875 14.351562 -6.773438 L 14.433594 -6.382812 C 14.746094 -4.90625 12.683594 -3.605469 8.640625 -2.746094 C 4.597656 -1.886719 2.484375 -2.414062 1.910156 -5.132812 L 0.777344 -4.890625 C 1.460938 -1.671875 3.761719 -0.574219 8.871094 -1.65625 C 14.328125 -2.816406 15.972656 -4.691406 15.589844 -6.492188 L 15.488281 -6.972656 C 14.980469 -9.363281 13.011719 -9.648438 7.414062 -9.050781 C 2.4375 -8.515625 1.132812 -8.894531 0.867188 -10.136719 L 0.785156 -10.527344 C 0.476562 -11.984375 2.503906 -13.230469 6.699219 -14.125 C 10.699219 -14.972656 12.847656 -14.476562 13.378906 -11.976562 Z M 13.378906 -11.976562 "/></g></g></g><g fill="#ff1616" fill-opacity="1"><g transform="translate(232.874196, 334.479284)"><g><path d="M 10.535156 -16.933594 L 10.1875 -17.894531 L -1.96875 -13.472656 L 2.589844 -0.941406 L 14.746094 -5.363281 L 14.394531 -6.324219 L 3.328125 -2.296875 L 1.632812 -6.953125 L 11.929688 -10.699219 L 11.578125 -11.660156 L 1.28125 -7.914062 L -0.53125 -12.90625 Z M 10.535156 -16.933594 "/></g></g></g><g fill="#ff1616" fill-opacity="1"><g transform="translate(252.530826, 327.084681)"><g><path d="M 13.6875 -8.769531 L 12.6875 -10.652344 C 12.042969 -11.871094 11.113281 -12.433594 9.757812 -12.292969 C 10.613281 -13.375 10.636719 -14.519531 9.917969 -15.875 L 9.667969 -16.347656 C 8.648438 -18.269531 6.808594 -18.703125 3.804688 -17.109375 L -3.8125 -13.070312 L 2.433594 -1.289062 L 3.496094 -1.851562 L 0.820312 -6.898438 L 7.375 -10.375 C 9.691406 -11.605469 10.847656 -11.464844 11.589844 -10.070312 L 12.628906 -8.105469 C 12.816406 -7.753906 13.046875 -7.371094 13.292969 -7.046875 L 14.410156 -7.640625 C 14.164062 -7.964844 13.917969 -8.335938 13.6875 -8.769531 Z M 0.277344 -7.917969 L -2.230469 -12.652344 L 4.324219 -16.128906 C 6.640625 -17.355469 7.871094 -17.175781 8.609375 -15.785156 L 8.859375 -15.3125 C 9.710938 -13.703125 9.152344 -12.625 6.835938 -11.398438 Z M 0.277344 -7.917969 "/></g></g></g><g fill="#ff1616" fill-opacity="1"><g transform="translate(271.99961, 316.368233)"><g><path d="M 4.125 -19.371094 L 5.78125 -5.625 L -6.726562 -11.585938 L -7.828125 -10.792969 L 5.902344 -4.238281 L 7.003906 -5.027344 L 5.191406 -20.136719 Z M 4.125 -19.371094 "/></g></g></g><g fill="#ff1616" fill-opacity="1"><g transform="translate(287.550764, 304.732098)"><g><path d="M 2.078125 -1.8125 L 2.945312 -2.570312 L -5.820312 -12.617188 L -6.691406 -11.859375 Z M 2.078125 -1.8125 "/></g></g></g><g fill="#ff1616" fill-opacity="1"><g transform="translate(295.484359, 298.045251)"><g><path d="M 7.089844 -7.398438 C 10.636719 -11.261719 11.0625 -14.613281 8.910156 -17.101562 L 8.066406 -16.183594 C 9.792969 -14.085938 9.234375 -11.375 6.273438 -8.148438 C 2.890625 -4.464844 0.015625 -4.027344 -2.539062 -6.371094 L -3.257812 -7.03125 C -5.8125 -9.375 -5.621094 -12.277344 -2.238281 -15.960938 C 0.660156 -19.121094 3.460938 -20.171875 5.480469 -18.589844 L 6.320312 -19.507812 C 3.863281 -21.492188 0.429688 -20.511719 -3.058594 -16.714844 C -7.027344 -12.390625 -7.015625 -8.855469 -4.070312 -6.148438 L -3.347656 -5.488281 C -0.402344 -2.78125 3.125 -3.074219 7.089844 -7.398438 Z M 7.089844 -7.398438 "/></g></g></g><g fill="#ff1616" fill-opacity="1"><g transform="translate(311.716007, 279.745649)"><g><path d="M -1.371094 -19.894531 L -2.214844 -20.46875 L -9.480469 -9.769531 L 1.546875 -2.28125 L 8.816406 -12.980469 L 7.96875 -13.554688 L 1.351562 -3.808594 L -2.746094 -6.59375 L 3.40625 -15.65625 L 2.5625 -16.230469 L -3.59375 -7.167969 L -7.988281 -10.152344 Z M -1.371094 -19.894531 "/></g></g></g></svg>